<svg width="37" height="37" viewBox="0 0 37 37" fill="none" xmlns="http://www.w3.org/2000/svg">
<g filter="url(#filter0_d_1509_86)">
<path fill-rule="evenodd" clip-rule="evenodd" d="M26.6765 10.3508C27.336 9.20101 26.9385 7.73432 25.7887 7.07485C24.639 6.41538 23.1723 6.81285 22.5128 7.96264L11.7661 26.6994L15.9298 29.0876L26.6765 10.3508Z" fill="url(#paint0_linear_1509_86)"/>
<path fill-rule="evenodd" clip-rule="evenodd" d="M14.943 13.3217C12.5386 13.5946 10.1341 13.8675 8.70816 16.3535L5.59704 21.7777L12.3631 25.6585L21.1779 10.2899C19.752 12.776 17.3475 13.0489 14.943 13.3217ZM25.785 19.7439C26.774 21.9388 27.7631 24.1337 26.3582 26.5831L23.2929 31.9274L16.5269 28.0467L25.2118 12.9046C23.8069 15.354 24.7959 17.5489 25.785 19.7439Z" fill="url(#paint1_linear_1509_86)"/>
</g>
<defs>
<filter id="filter0_d_1509_86" x="2" y="0" width="33.5548" height="35.9274" filterUnits="userSpaceOnUse" color-interpolation-filters="sRGB">
<feFlood flood-opacity="0" result="BackgroundImageFix"/>
<feColorMatrix in="SourceAlpha" type="matrix" values="0 0 0 0 0 0 0 0 0 0 0 0 0 0 0 0 0 0 127 0" result="hardAlpha"/>
<feOffset dy="1"/>
<feGaussianBlur stdDeviation="1.5"/>
<feComposite in2="hardAlpha" operator="out"/>
<feColorMatrix type="matrix" values="0 0 0 0 0 0 0 0 0 0 0 0 0 0 0 0 0 0 1 0"/>
<feBlend mode="normal" in2="BackgroundImageFix" result="effect1_dropShadow_1509_86"/>
<feBlend mode="normal" in="SourceGraphic" in2="effect1_dropShadow_1509_86" result="shape"/>
</filter>
<linearGradient id="paint0_linear_1509_86" x1="22.2143" y1="8.4831" x2="26.378" y2="10.8713" gradientUnits="userSpaceOnUse">
<stop offset="0.166667" stop-color="white"/>
<stop offset="0.854167" stop-color="#BABABA"/>
</linearGradient>
<linearGradient id="paint1_linear_1509_86" x1="2.46362" y1="11.8723" x2="30.166" y2="27.7613" gradientUnits="userSpaceOnUse">
<stop offset="0.0931314" stop-color="white"/>
<stop offset="0.370667" stop-color="#D6D6D6"/>
<stop offset="0.633642" stop-color="white"/>
<stop offset="1" stop-color="#D7D7D7"/>
</linearGradient>
</defs>
</svg>
