<svg width="37" height="37" viewBox="0 0 37 37" fill="none" xmlns="http://www.w3.org/2000/svg">
<g filter="url(#filter0_d_1207_188)">
<path d="M20.9142 9.41421L29.0858 17.5858C29.8668 18.3668 29.8668 19.6332 29.0858 20.4142L20.9142 28.5858C20.1332 29.3668 18.8668 29.3668 18.0858 28.5858L16.9142 27.4142C16.1332 26.6332 16.1332 25.3668 16.9142 24.5858L20 21.5L9 21.5C7.89543 21.5 7 20.6046 7 19.5L7 18.5033C7 17.3988 7.89543 16.5033 9 16.5033L20 16.5033L16.9132 13.4142C16.1326 12.6331 16.1328 11.3672 16.9137 10.5863L18.0858 9.41421C18.8668 8.63316 20.1332 8.63316 20.9142 9.41421Z" fill="url(#paint0_linear_1207_188)"/>
</g>
<rect x="0.5" y="0.5" width="36" height="36" stroke="white" stroke-opacity="0.01"/>
<defs>
<filter id="filter0_d_1207_188" x="5" y="6.82843" width="26.6716" height="24.3431" filterUnits="userSpaceOnUse" color-interpolation-filters="sRGB">
<feFlood flood-opacity="0" result="BackgroundImageFix"/>
<feColorMatrix in="SourceAlpha" type="matrix" values="0 0 0 0 0 0 0 0 0 0 0 0 0 0 0 0 0 0 127 0" result="hardAlpha"/>
<feOffset/>
<feGaussianBlur stdDeviation="1"/>
<feColorMatrix type="matrix" values="0 0 0 0 0 0 0 0 0 0 0 0 0 0 0 0 0 0 1 0"/>
<feBlend mode="normal" in2="BackgroundImageFix" result="effect1_dropShadow_1207_188"/>
<feBlend mode="normal" in="SourceGraphic" in2="effect1_dropShadow_1207_188" result="shape"/>
</filter>
<linearGradient id="paint0_linear_1207_188" x1="19" y1="8" x2="19" y2="30" gradientUnits="userSpaceOnUse">
<stop offset="0.442322" stop-color="white"/>
<stop offset="0.925922" stop-color="#BABABA"/>
</linearGradient>
</defs>
</svg>
