<svg width="12" height="10" viewBox="0 0 12 10" fill="none" xmlns="http://www.w3.org/2000/svg">
<rect width="12" height="10" fill="#D9D9D9" fill-opacity="0.01"/>
<mask id="path-2-outside-1_1316_183" maskUnits="userSpaceOnUse" x="2" y="0" width="9" height="8" fill="black">
<rect fill="white" x="2" width="9" height="8"/>
<path fill-rule="evenodd" clip-rule="evenodd" d="M3.5 1C3.22386 1 3 1.22386 3 1.5V6.5C3 6.77614 3.22386 7 3.5 7H9.5C9.77614 7 10 6.77614 10 6.5V1.5C10 1.22386 9.77614 1 9.5 1H3.5ZM4.8999 2.5C4.62376 2.5 4.3999 2.72386 4.3999 3V5C4.3999 5.27614 4.62376 5.5 4.8999 5.5H8.0999C8.37604 5.5 8.5999 5.27614 8.5999 5V3C8.5999 2.72386 8.37604 2.5 8.0999 2.5H4.8999Z"/>
</mask>
<path fill-rule="evenodd" clip-rule="evenodd" d="M3.5 1C3.22386 1 3 1.22386 3 1.5V6.5C3 6.77614 3.22386 7 3.5 7H9.5C9.77614 7 10 6.77614 10 6.5V1.5C10 1.22386 9.77614 1 9.5 1H3.5ZM4.8999 2.5C4.62376 2.5 4.3999 2.72386 4.3999 3V5C4.3999 5.27614 4.62376 5.5 4.8999 5.5H8.0999C8.37604 5.5 8.5999 5.27614 8.5999 5V3C8.5999 2.72386 8.37604 2.5 8.0999 2.5H4.8999Z" fill="url(#paint0_linear_1316_183)"/>
<path d="M4 1.5C4 1.77614 3.77614 2 3.5 2V0C2.67157 0 2 0.671572 2 1.5H4ZM4 6.5V1.5H2V6.5H4ZM3.5 6C3.77614 6 4 6.22386 4 6.5H2C2 7.32843 2.67157 8 3.5 8V6ZM9.5 6H3.5V8H9.5V6ZM9 6.5C9 6.22386 9.22386 6 9.5 6V8C10.3284 8 11 7.32843 11 6.5H9ZM9 1.5V6.5H11V1.5H9ZM9.5 2C9.22386 2 9 1.77614 9 1.5H11C11 0.671573 10.3284 0 9.5 0V2ZM3.5 2H9.5V0H3.5V2ZM5.3999 3C5.3999 3.27614 5.17604 3.5 4.8999 3.5V1.5C4.07148 1.5 3.3999 2.17157 3.3999 3H5.3999ZM5.3999 5V3H3.3999V5H5.3999ZM4.8999 4.5C5.17604 4.5 5.3999 4.72386 5.3999 5H3.3999C3.3999 5.82843 4.07148 6.5 4.8999 6.5V4.5ZM8.0999 4.5H4.8999V6.5H8.0999V4.5ZM7.5999 5C7.5999 4.72386 7.82376 4.5 8.0999 4.5V6.5C8.92833 6.5 9.5999 5.82843 9.5999 5H7.5999ZM7.5999 3V5H9.5999V3H7.5999ZM8.0999 3.5C7.82376 3.5 7.5999 3.27614 7.5999 3H9.5999C9.5999 2.17157 8.92833 1.5 8.0999 1.5V3.5ZM4.8999 3.5H8.0999V1.5H4.8999V3.5Z" fill="#535666" mask="url(#path-2-outside-1_1316_183)"/>
<mask id="path-4-outside-2_1316_183" maskUnits="userSpaceOnUse" x="0" y="2" width="9" height="8" fill="black">
<rect fill="white" y="2" width="9" height="8"/>
<path fill-rule="evenodd" clip-rule="evenodd" d="M1.5 3C1.22386 3 1 3.22386 1 3.5V8.5C1 8.77614 1.22386 9 1.5 9H7.5C7.77614 9 8 8.77614 8 8.5V3.5C8 3.22386 7.77614 3 7.5 3H1.5ZM2.9 4.5C2.62386 4.5 2.4 4.72386 2.4 5V7C2.4 7.27614 2.62386 7.5 2.9 7.5H6.1C6.37614 7.5 6.6 7.27614 6.6 7V5C6.6 4.72386 6.37614 4.5 6.1 4.5H2.9Z"/>
</mask>
<path fill-rule="evenodd" clip-rule="evenodd" d="M1.5 3C1.22386 3 1 3.22386 1 3.5V8.5C1 8.77614 1.22386 9 1.5 9H7.5C7.77614 9 8 8.77614 8 8.5V3.5C8 3.22386 7.77614 3 7.5 3H1.5ZM2.9 4.5C2.62386 4.5 2.4 4.72386 2.4 5V7C2.4 7.27614 2.62386 7.5 2.9 7.5H6.1C6.37614 7.5 6.6 7.27614 6.6 7V5C6.6 4.72386 6.37614 4.5 6.1 4.5H2.9Z" fill="url(#paint1_linear_1316_183)"/>
<path d="M2 3.5C2 3.77614 1.77614 4 1.5 4V2C0.671573 2 0 2.67157 0 3.5H2ZM2 8.5V3.5H0V8.5H2ZM1.5 8C1.77614 8 2 8.22386 2 8.5H0C0 9.32843 0.671573 10 1.5 10V8ZM7.5 8H1.5V10H7.5V8ZM7 8.5C7 8.22386 7.22386 8 7.5 8V10C8.32843 10 9 9.32843 9 8.5H7ZM7 3.5V8.5H9V3.5H7ZM7.5 4C7.22386 4 7 3.77614 7 3.5H9C9 2.67157 8.32843 2 7.5 2V4ZM1.5 4H7.5V2H1.5V4ZM3.4 5C3.4 5.27614 3.17614 5.5 2.9 5.5V3.5C2.07157 3.5 1.4 4.17157 1.4 5H3.4ZM3.4 7V5H1.4V7H3.4ZM2.9 6.5C3.17614 6.5 3.4 6.72386 3.4 7H1.4C1.4 7.82843 2.07157 8.5 2.9 8.5V6.5ZM6.1 6.5H2.9V8.5H6.1V6.5ZM5.6 7C5.6 6.72386 5.82386 6.5 6.1 6.5V8.5C6.92843 8.5 7.6 7.82843 7.6 7H5.6ZM5.6 5V7H7.6V5H5.6ZM6.1 5.5C5.82386 5.5 5.6 5.27614 5.6 5H7.6C7.6 4.17157 6.92843 3.5 6.1 3.5V5.5ZM2.9 5.5H6.1V3.5H2.9V5.5Z" fill="#535666" mask="url(#path-4-outside-2_1316_183)"/>
<defs>
<linearGradient id="paint0_linear_1316_183" x1="6.5" y1="1" x2="6.5" y2="7" gradientUnits="userSpaceOnUse">
<stop stop-color="#FEFEFE"/>
<stop offset="1" stop-color="#E7E7E7"/>
</linearGradient>
<linearGradient id="paint1_linear_1316_183" x1="4.5" y1="3" x2="4.5" y2="9" gradientUnits="userSpaceOnUse">
<stop stop-color="#FEFEFE"/>
<stop offset="1" stop-color="#E7E7E7"/>
</linearGradient>
</defs>
</svg>
