<svg width="12" height="10" viewBox="0 0 12 10" fill="none" xmlns="http://www.w3.org/2000/svg">
<path d="M0.646447 1.14645C0.451184 1.34171 0.451184 1.65829 0.646447 1.85355L3.79289 5L0.646447 8.14645C0.451184 8.34171 0.451184 8.65829 0.646447 8.85355L1.14645 9.35355C1.24021 9.44732 1.36739 9.5 1.5 9.5H3.5C3.63261 9.5 3.75979 9.44732 3.85355 9.35355L6 7.20711L8.14645 9.35355C8.24021 9.44732 8.36739 9.5 8.5 9.5H10.5C10.6326 9.5 10.7598 9.44732 10.8536 9.35355L11.3536 8.85355C11.5488 8.65829 11.5488 8.34171 11.3536 8.14645L8.20711 5L11.3536 1.85355C11.5488 1.65829 11.5488 1.34171 11.3536 1.14645L10.8536 0.646447C10.7598 0.552678 10.6326 0.5 10.5 0.5H8.5C8.36739 0.5 8.24021 0.552678 8.14645 0.646447L6 2.79289L3.85355 0.646447C3.75979 0.552678 3.63261 0.5 3.5 0.5H1.5C1.36739 0.5 1.24021 0.552678 1.14645 0.646447L0.646447 1.14645Z" fill="url(#paint0_linear_1316_172)" stroke="#535666" stroke-linejoin="round"/>
<defs>
<linearGradient id="paint0_linear_1316_172" x1="6" y1="1" x2="6" y2="9" gradientUnits="userSpaceOnUse">
<stop stop-color="white"/>
<stop offset="1" stop-color="#DADADA"/>
</linearGradient>
</defs>
</svg>
