<svg width="12" height="10" viewBox="0 0 12 10" fill="none" xmlns="http://www.w3.org/2000/svg">
<mask id="path-1-outside-1_1316_170" maskUnits="userSpaceOnUse" x="0" y="0" width="12" height="10" fill="black">
<rect fill="white" width="12" height="10"/>
<path fill-rule="evenodd" clip-rule="evenodd" d="M1.5 1C1.22386 1 1 1.22386 1 1.5V8.5C1 8.77614 1.22386 9 1.5 9H10.5C10.7761 9 11 8.77614 11 8.5V1.5C11 1.22386 10.7761 1 10.5 1H1.5ZM3.5 3C3.22386 3 3 3.22386 3 3.5V6.5C3 6.77614 3.22386 7 3.5 7H8.5C8.77614 7 9 6.77614 9 6.5V3.5C9 3.22386 8.77614 3 8.5 3H3.5Z"/>
</mask>
<path fill-rule="evenodd" clip-rule="evenodd" d="M1.5 1C1.22386 1 1 1.22386 1 1.5V8.5C1 8.77614 1.22386 9 1.5 9H10.5C10.7761 9 11 8.77614 11 8.5V1.5C11 1.22386 10.7761 1 10.5 1H1.5ZM3.5 3C3.22386 3 3 3.22386 3 3.5V6.5C3 6.77614 3.22386 7 3.5 7H8.5C8.77614 7 9 6.77614 9 6.5V3.5C9 3.22386 8.77614 3 8.5 3H3.5Z" fill="url(#paint0_linear_1316_170)"/>
<path d="M2 1.5C2 1.77614 1.77614 2 1.5 2V0C0.671573 0 0 0.671573 0 1.5H2ZM2 8.5V1.5H0V8.5H2ZM1.5 8C1.77614 8 2 8.22386 2 8.5H0C0 9.32843 0.671574 10 1.5 10V8ZM10.5 8H1.5V10H10.5V8ZM10 8.5C10 8.22386 10.2239 8 10.5 8V10C11.3284 10 12 9.32843 12 8.5H10ZM10 1.5V8.5H12V1.5H10ZM10.5 2C10.2239 2 10 1.77614 10 1.5H12C12 0.671573 11.3284 0 10.5 0V2ZM1.5 2H10.5V0H1.5V2ZM4 3.5C4 3.77614 3.77614 4 3.5 4V2C2.67157 2 2 2.67157 2 3.5H4ZM4 6.5V3.5H2V6.5H4ZM3.5 6C3.77614 6 4 6.22386 4 6.5H2C2 7.32843 2.67157 8 3.5 8V6ZM8.5 6H3.5V8H8.5V6ZM8 6.5C8 6.22386 8.22386 6 8.5 6V8C9.32843 8 10 7.32843 10 6.5H8ZM8 3.5V6.5H10V3.5H8ZM8.5 4C8.22386 4 8 3.77614 8 3.5H10C10 2.67157 9.32843 2 8.5 2V4ZM3.5 4H8.5V2H3.5V4Z" fill="#535666" mask="url(#path-1-outside-1_1316_170)"/>
<defs>
<linearGradient id="paint0_linear_1316_170" x1="6" y1="1" x2="6" y2="9" gradientUnits="userSpaceOnUse">
<stop stop-color="#FEFEFE"/>
<stop offset="1" stop-color="#E7E7E7"/>
</linearGradient>
</defs>
</svg>
